<svg width="30" height="30" viewBox="0 0 30 30" fill="none" xmlns="http://www.w3.org/2000/svg">
<path fill-rule="evenodd" clip-rule="evenodd" d="M15.0002 0.833328C22.8242 0.833328 29.1668 7.17596 29.1668 15C29.1668 22.824 22.8242 29.1667 15.0002 29.1667C7.17613 29.1667 0.833496 22.824 0.833496 15C0.833496 7.17596 7.17613 0.833328 15.0002 0.833328ZM15.0002 3.66666C8.74093 3.66666 3.66683 8.74077 3.66683 15C3.66683 21.2592 8.74093 26.3333 15.0002 26.3333C21.2594 26.3333 26.3335 21.2592 26.3335 15C26.3335 8.74077 21.2594 3.66666 15.0002 3.66666ZM8.33227 8.3321C8.84357 7.82079 9.64579 7.78146 10.2019 8.2141L10.3354 8.3321L15.0005 12.9972L19.6656 8.3321C20.2195 7.77818 21.1148 7.77818 21.6688 8.3321C22.1801 8.84341 22.2194 9.64563 21.7868 10.2017L21.6688 10.3353L17.0037 15.0003L21.6688 19.6654C22.2227 20.2193 22.2227 21.1147 21.6688 21.6686C21.3925 21.9448 21.0299 22.0837 20.6672 22.0837C20.365 22.0837 20.0627 21.9873 19.8105 21.7953L19.6656 21.6686L15.0005 17.0035L10.3354 21.6686C10.0592 21.9448 9.69652 22.0837 9.33385 22.0837C8.97118 22.0837 8.60852 21.9448 8.33227 21.6686C7.82096 21.1573 7.78163 20.3551 8.21427 19.799L8.33227 19.6654L12.9973 15.0003L8.33227 10.3353C7.77835 9.78135 7.77835 8.88601 8.33227 8.3321Z" fill="#736363"/>
</svg>
